<?xml version="1.0" encoding="utf-8"?>
<!-- Generator: Adobe Illustrator 23.0.1, SVG Export Plug-In . SVG Version: 6.00 Build 0)  -->
<svg version="1.1" id="Layer_1" xmlns="http://www.w3.org/2000/svg" xmlns:xlink="http://www.w3.org/1999/xlink" x="0px" y="0px"
	 viewBox="0 0 38 38" style="enable-background:new 0 0 38 38;" xml:space="preserve">
<style type="text/css">
	.st0{fill:#FFFFFF;}
</style>
<path class="st0" d="M25.6,16.2l-7.2,7.2c-0.5,0.5-1.2,0.5-1.7,0l0,0c-0.5-0.5-0.5-1.2,0-1.7l7.2-7.2c0.5-0.5,1.2-0.5,1.7,0v0
	C26.1,15,26.1,15.8,25.6,16.2z"/>
<path class="st0" d="M14.1,17.5l4.3,4.3c0.5,0.5,0.5,1.2,0,1.7l0,0c-0.5,0.5-1.2,0.5-1.7,0l-4.3-4.3c-0.5-0.5-0.5-1.2,0-1.7l0,0
	C12.9,17,13.6,17,14.1,17.5z"/>
</svg>
