<?xml version="1.0" encoding="utf-8"?>
<!-- Generator: Adobe Illustrator 23.0.1, SVG Export Plug-In . SVG Version: 6.00 Build 0)  -->
<svg version="1.1" id="Layer_1" xmlns="http://www.w3.org/2000/svg" xmlns:xlink="http://www.w3.org/1999/xlink" x="0px" y="0px"
	 viewBox="0 0 44 44" style="enable-background:new 0 0 44 44;" xml:space="preserve">
<style type="text/css">
	.st0{fill:none;stroke:#FFFFFF;stroke-width:2;stroke-miterlimit:10;}
	.st1{fill:none;stroke:#FFFFFF;stroke-width:2;stroke-linecap:round;stroke-linejoin:round;stroke-miterlimit:10;}
</style>
<circle class="st0" cx="22" cy="21.8" r="3"/>
<path class="st1" d="M29.6,16.4c-0.8-0.6-1.9-0.9-3.4-1L25.7,14c-0.2-0.5-0.6-0.8-1.2-0.8H22h-2.6c-0.5,0-1,0.3-1.2,0.8l-0.5,1.4
	c-1.5,0.1-2.6,0.4-3.4,1c-1.5,1.1-1.5,2.8-1.5,5.9s0,4.7,1.5,5.9c1.5,1.1,3.6,1.1,7.6,1.1s6.2,0,7.6-1.1c1.5-1.1,1.5-2.8,1.5-5.9
	S31.1,17.5,29.6,16.4z"/>
</svg>
