<?xml version="1.0" encoding="utf-8"?>
<!-- Generator: Adobe Illustrator 23.0.1, SVG Export Plug-In . SVG Version: 6.00 Build 0)  -->
<svg version="1.1" id="Layer_1" xmlns="http://www.w3.org/2000/svg" xmlns:xlink="http://www.w3.org/1999/xlink" x="0px" y="0px"
	 viewBox="0 0 38 38" style="enable-background:new 0 0 38 38;" xml:space="preserve">
<style type="text/css">
	.st0{fill:#FFFFFF;}
</style>
<path class="st0" d="M14.2,22.1l8-8c0.5-0.5,1.2-0.5,1.7,0v0c0.5,0.5,0.5,1.2,0,1.7l-8,8c-0.5,0.5-1.2,0.5-1.7,0l0,0
	C13.7,23.4,13.7,22.6,14.2,22.1z"/>
<path class="st0" d="M23.8,22.1l-8-8c-0.5-0.5-1.2-0.5-1.7,0l0,0c-0.5,0.5-0.5,1.2,0,1.7l8,8c0.5,0.5,1.2,0.5,1.7,0h0
	C24.3,23.4,24.3,22.6,23.8,22.1z"/>
</svg>
