<?xml version="1.0" encoding="utf-8"?>
<!-- Generator: Adobe Illustrator 23.0.1, SVG Export Plug-In . SVG Version: 6.00 Build 0)  -->
<svg version="1.1" id="Layer_1" xmlns="http://www.w3.org/2000/svg" xmlns:xlink="http://www.w3.org/1999/xlink" x="0px" y="0px"
	 viewBox="0 0 44 44" style="enable-background:new 0 0 44 44;" xml:space="preserve">
<style type="text/css">
	.st0{opacity:0.12;enable-background:new    ;}
	.st1{opacity:0.12;fill:#FFFFFF;enable-background:new    ;}
</style>
<rect x="0" y="0" class="st0" width="7.3" height="7.3"/>
<rect x="7.3" y="0" class="st1" width="7.3" height="7.3"/>
<rect x="14.7" y="0" class="st0" width="7.3" height="7.3"/>
<rect x="22" y="0" class="st1" width="7.3" height="7.3"/>
<rect x="29.3" y="0" class="st0" width="7.3" height="7.3"/>
<rect x="36.7" y="0" class="st1" width="7.3" height="7.3"/>
<rect x="7.3" y="7.3" class="st0" width="7.3" height="7.3"/>
<rect x="14.7" y="7.3" class="st1" width="7.3" height="7.3"/>
<rect y="7.3" class="st1" width="7.3" height="7.3"/>
<rect x="22" y="7.3" class="st0" width="7.3" height="7.3"/>
<rect x="29.3" y="7.3" class="st1" width="7.3" height="7.3"/>
<rect x="36.7" y="7.3" class="st0" width="7.3" height="7.3"/>
<rect x="0" y="14.7" class="st0" width="7.3" height="7.3"/>
<rect x="7.3" y="14.7" class="st1" width="7.3" height="7.3"/>
<rect x="14.7" y="14.7" class="st0" width="7.3" height="7.3"/>
<rect x="22" y="14.7" class="st1" width="7.3" height="7.3"/>
<rect x="29.3" y="14.7" class="st0" width="7.3" height="7.3"/>
<rect x="36.7" y="14.7" class="st1" width="7.3" height="7.3"/>
<rect x="7.3" y="22" class="st0" width="7.3" height="7.3"/>
<rect x="14.7" y="22" class="st1" width="7.3" height="7.3"/>
<rect y="22" class="st1" width="7.3" height="7.3"/>
<rect x="22" y="22" class="st0" width="7.3" height="7.3"/>
<rect x="29.3" y="22" class="st1" width="7.3" height="7.3"/>
<rect x="36.7" y="22" class="st0" width="7.3" height="7.3"/>
<rect x="0" y="29.3" class="st0" width="7.3" height="7.3"/>
<rect x="7.3" y="29.3" class="st1" width="7.3" height="7.3"/>
<rect x="14.7" y="29.3" class="st0" width="7.3" height="7.3"/>
<rect x="22" y="29.3" class="st1" width="7.3" height="7.3"/>
<rect x="29.3" y="29.3" class="st0" width="7.3" height="7.3"/>
<rect x="36.7" y="29.3" class="st1" width="7.3" height="7.3"/>
<rect x="7.3" y="36.7" class="st0" width="7.3" height="7.3"/>
<rect x="14.7" y="36.7" class="st1" width="7.3" height="7.3"/>
<rect y="36.7" class="st1" width="7.3" height="7.3"/>
<rect x="22" y="36.7" class="st0" width="7.3" height="7.3"/>
<rect x="29.3" y="36.7" class="st1" width="7.3" height="7.3"/>
<rect x="36.7" y="36.7" class="st0" width="7.3" height="7.3"/>
</svg>
