<?xml version="1.0" encoding="utf-8"?>
<!-- Generator: Adobe Illustrator 23.0.1, SVG Export Plug-In . SVG Version: 6.00 Build 0)  -->
<svg version="1.1" id="Layer_1" xmlns="http://www.w3.org/2000/svg" xmlns:xlink="http://www.w3.org/1999/xlink" x="0px" y="0px"
	 viewBox="0 0 40 40" style="enable-background:new 0 0 40 40;" xml:space="preserve">
<style type="text/css">
	.st0{fill:#ED3248;}
	.st1{opacity:0.84;fill:#FFFFFF;enable-background:new    ;}
</style>
<path class="st0" d="M20,40c8.8,0,13.6,0,16.8-3.2S40,28.8,40,20s0-13.6-3.2-16.8S28.8,0,20,0S6.4,0,3.2,3.2S0,11.2,0,20
	s0,13.6,3.2,16.8S11.2,40,20,40z"/>
<path class="st1" d="M21.7,17.2v-5.4l9.5,5.5v5.1c0,0.3-0.3,0.5-0.6,0.3L22,17.8C21.8,17.7,21.7,17.4,21.7,17.2z"/>
<path class="st1" d="M10,25.5c0.5,0.3,1,0.4,1.6,0.4c1.9,0,3.4-1.5,3.4-3.4l9.5,5.5c0,1.9-1.5,3.4-3.4,3.4c-0.6,0-1.1-0.2-1.6-0.4
	l0,0L10,25.5"/>
<path class="st1" d="M31.2,17.3l-9.5-5.5l0,0c0-1.3-0.7-2.1-1.7-2.7l9.5,5.5C30.5,15.1,31.2,16,31.2,17.3"/>
<path class="st1" d="M29.5,14.6c-0.5-0.3-1-0.4-1.6-0.4c-1.9,0-3.4,1.5-3.4,3.4L15,12.1c0-1.9,1.5-3.4,3.4-3.4
	c0.6,0,1.2,0.2,1.6,0.4L29.5,14.6"/>
<polygon class="st1" points="15,22.5 15,12.1 24.5,17.5 24.6,28 "/>
<path class="st1" d="M19.6,30.9c-1-0.6-1.7-1.7-1.7-3l-9.5-5.5c0,1.3,0.7,2.4,1.8,3L19.6,30.9"/>
<path class="st1" d="M8.3,22.5v-5.1c0-0.3,0.3-0.5,0.6-0.3l8.6,4.9c0.2,0.1,0.4,0.4,0.4,0.7V28L8.3,22.5z"/>
</svg>
